<mxfile host="app.diagrams.net" modified="2024-06-20T01:48:58.748Z" agent="Mozilla/5.0 (Windows NT 10.0; Win64; x64) AppleWebKit/537.36 (KHTML, like Gecko) Chrome/126.0.0.0 Safari/537.36" version="24.2.8" etag="PLI83SJpIMSIuGr0MPE4" type="github">
  <diagram name="PÃ¡gina-1" id="6hsFK7aNrj678AKya2V9">
    <mxGraphModel>
      <root>
        <mxCell id="0" />
        <mxCell id="1" parent="0" />
      </root>
    </mxGraphModel>
  </diagram>
</mxfile>
